<mxfile host="app.diagrams.net" agent="Mozilla/5.0 (X11; Linux x86_64; rv:128.0) Gecko/20100101 Firefox/128.0" version="28.0.3">
  <diagram name="Page-1" id="Z1Kni6PLereC6R1R3r0I">
    <mxGraphModel dx="952" dy="659" grid="1" gridSize="10" guides="1" tooltips="1" connect="1" arrows="1" fold="1" page="1" pageScale="1" pageWidth="850" pageHeight="1100" math="0" shadow="0">
      <root>
        <mxCell id="0" />
        <mxCell id="1" parent="0" />
        <mxCell id="jEF-ghPaqIJXFV_N78jB-6" style="edgeStyle=orthogonalEdgeStyle;rounded=0;orthogonalLoop=1;jettySize=auto;html=1;exitX=0.5;exitY=1;exitDx=0;exitDy=0;entryX=0.5;entryY=0;entryDx=0;entryDy=0;" edge="1" parent="1" source="jEF-ghPaqIJXFV_N78jB-1" target="jEF-ghPaqIJXFV_N78jB-5">
          <mxGeometry relative="1" as="geometry" />
        </mxCell>
        <mxCell id="jEF-ghPaqIJXFV_N78jB-1" value="Start" style="rounded=1;whiteSpace=wrap;html=1;" vertex="1" parent="1">
          <mxGeometry x="365" y="160" width="120" height="60" as="geometry" />
        </mxCell>
        <mxCell id="jEF-ghPaqIJXFV_N78jB-9" style="edgeStyle=orthogonalEdgeStyle;rounded=0;orthogonalLoop=1;jettySize=auto;html=1;exitX=0.5;exitY=1;exitDx=0;exitDy=0;entryX=0.5;entryY=0;entryDx=0;entryDy=0;" edge="1" parent="1" source="jEF-ghPaqIJXFV_N78jB-3" target="jEF-ghPaqIJXFV_N78jB-8">
          <mxGeometry relative="1" as="geometry" />
        </mxCell>
        <mxCell id="jEF-ghPaqIJXFV_N78jB-10" value="Button Pressed" style="edgeLabel;html=1;align=center;verticalAlign=middle;resizable=0;points=[];" vertex="1" connectable="0" parent="jEF-ghPaqIJXFV_N78jB-9">
          <mxGeometry x="-0.338" y="-1" relative="1" as="geometry">
            <mxPoint x="1" as="offset" />
          </mxGeometry>
        </mxCell>
        <mxCell id="jEF-ghPaqIJXFV_N78jB-3" value="Attract mode" style="rounded=1;whiteSpace=wrap;html=1;" vertex="1" parent="1">
          <mxGeometry x="365" y="360" width="120" height="60" as="geometry" />
        </mxCell>
        <mxCell id="jEF-ghPaqIJXFV_N78jB-7" style="edgeStyle=orthogonalEdgeStyle;rounded=0;orthogonalLoop=1;jettySize=auto;html=1;exitX=0.5;exitY=1;exitDx=0;exitDy=0;entryX=0.5;entryY=0;entryDx=0;entryDy=0;" edge="1" parent="1" source="jEF-ghPaqIJXFV_N78jB-5" target="jEF-ghPaqIJXFV_N78jB-3">
          <mxGeometry relative="1" as="geometry" />
        </mxCell>
        <mxCell id="jEF-ghPaqIJXFV_N78jB-5" value="Init" style="rounded=1;whiteSpace=wrap;html=1;" vertex="1" parent="1">
          <mxGeometry x="365" y="260" width="120" height="60" as="geometry" />
        </mxCell>
        <mxCell id="jEF-ghPaqIJXFV_N78jB-13" style="edgeStyle=orthogonalEdgeStyle;rounded=0;orthogonalLoop=1;jettySize=auto;html=1;exitX=0.5;exitY=1;exitDx=0;exitDy=0;entryX=0.5;entryY=0;entryDx=0;entryDy=0;" edge="1" parent="1" source="jEF-ghPaqIJXFV_N78jB-8" target="jEF-ghPaqIJXFV_N78jB-11">
          <mxGeometry relative="1" as="geometry" />
        </mxCell>
        <mxCell id="jEF-ghPaqIJXFV_N78jB-15" value="Win" style="edgeLabel;html=1;align=center;verticalAlign=middle;resizable=0;points=[];" vertex="1" connectable="0" parent="jEF-ghPaqIJXFV_N78jB-13">
          <mxGeometry x="0.1358" relative="1" as="geometry">
            <mxPoint as="offset" />
          </mxGeometry>
        </mxCell>
        <mxCell id="jEF-ghPaqIJXFV_N78jB-14" style="edgeStyle=orthogonalEdgeStyle;rounded=0;orthogonalLoop=1;jettySize=auto;html=1;exitX=0.5;exitY=1;exitDx=0;exitDy=0;entryX=0.5;entryY=0;entryDx=0;entryDy=0;" edge="1" parent="1" source="jEF-ghPaqIJXFV_N78jB-8" target="jEF-ghPaqIJXFV_N78jB-12">
          <mxGeometry relative="1" as="geometry" />
        </mxCell>
        <mxCell id="jEF-ghPaqIJXFV_N78jB-16" value="Lose" style="edgeLabel;html=1;align=center;verticalAlign=middle;resizable=0;points=[];" vertex="1" connectable="0" parent="jEF-ghPaqIJXFV_N78jB-14">
          <mxGeometry x="0.0392" relative="1" as="geometry">
            <mxPoint as="offset" />
          </mxGeometry>
        </mxCell>
        <mxCell id="jEF-ghPaqIJXFV_N78jB-8" value="Game Mode" style="rounded=1;whiteSpace=wrap;html=1;" vertex="1" parent="1">
          <mxGeometry x="365" y="460" width="120" height="60" as="geometry" />
        </mxCell>
        <mxCell id="jEF-ghPaqIJXFV_N78jB-18" style="edgeStyle=orthogonalEdgeStyle;rounded=0;orthogonalLoop=1;jettySize=auto;html=1;exitX=0;exitY=0.5;exitDx=0;exitDy=0;entryX=0;entryY=0.5;entryDx=0;entryDy=0;" edge="1" parent="1" source="jEF-ghPaqIJXFV_N78jB-11" target="jEF-ghPaqIJXFV_N78jB-3">
          <mxGeometry relative="1" as="geometry" />
        </mxCell>
        <mxCell id="jEF-ghPaqIJXFV_N78jB-11" value="Win Animation" style="rounded=1;whiteSpace=wrap;html=1;" vertex="1" parent="1">
          <mxGeometry x="245" y="600" width="120" height="60" as="geometry" />
        </mxCell>
        <mxCell id="jEF-ghPaqIJXFV_N78jB-19" style="edgeStyle=orthogonalEdgeStyle;rounded=0;orthogonalLoop=1;jettySize=auto;html=1;exitX=1;exitY=0.5;exitDx=0;exitDy=0;entryX=1;entryY=0.5;entryDx=0;entryDy=0;" edge="1" parent="1" source="jEF-ghPaqIJXFV_N78jB-12" target="jEF-ghPaqIJXFV_N78jB-3">
          <mxGeometry relative="1" as="geometry" />
        </mxCell>
        <mxCell id="jEF-ghPaqIJXFV_N78jB-12" value="Lose Animation" style="rounded=1;whiteSpace=wrap;html=1;" vertex="1" parent="1">
          <mxGeometry x="485" y="600" width="120" height="60" as="geometry" />
        </mxCell>
      </root>
    </mxGraphModel>
  </diagram>
</mxfile>
